<?xml version="1.0" encoding="UTF-8"?>
<svg width="42px" height="43px" viewBox="0 0 42 43" version="1.1" xmlns="http://www.w3.org/2000/svg" xmlns:xlink="http://www.w3.org/1999/xlink">
    <!-- Generator: sketchtool 52.1 (67048) - http://www.bohemiancoding.com/sketch -->
    <title>07378BC2-AF7F-4763-A84B-F67300E8BBE7</title>
    <desc>Created with sketchtool.</desc>
    <g id="Page-2" stroke="none" stroke-width="1" fill="none" fill-rule="evenodd">
        <g id="Desktop-HD-Copy-115" transform="translate(-62.000000, -850.000000)" fill="#FFFFFF">
            <g id="Group-19" transform="translate(62.000000, 850.000000)">
                <g id="Group-10">
                    <path d="M27.2082348,13.4989096 L23.3160532,13.4989096 L18.0984574,23.1499081 L18.0984574,23.1519355 L14.0506384,22.2432771 C11.4251948,21.722248 10.0639924,20.9169845 10.0639924,19.0696628 C10.0639924,16.9855467 11.959938,15.7537286 14.8770976,15.7537286 C16.252865,15.7537286 17.1970925,15.9872794 18.0131482,16.4977662 L18.0131482,16.4900623 L23.1741486,6.91407562 L27.2082348,6.91407562 C30.3684217,6.91407562 32.0209239,8.0035737 32.0209239,10.0406553 C32.0209239,12.125177 30.3193168,13.4989096 27.2082348,13.4989096 Z M0.244227607,33.1128517 L8.26971238,31.5528554 C8.81415519,34.3811896 11.2908311,36.2182085 15.1688136,36.2182085 C16.3698011,36.2182085 18.7530497,35.9218099 18.7530497,35.9218099 L19.2898736,34.9292191 C19.4126357,34.7248622 19.7476305,34.0736773 19.9386399,33.7298387 C19.9457144,33.7172691 20.1246557,33.3831618 20.1325624,33.3709977 L24.1703939,25.9573829 L28.3750987,25.9573829 C31.7783128,25.9573829 33.2851651,24.4887703 33.2851651,22.5940087 C33.2851651,20.604367 31.583558,19.609749 28.5694373,19.609749 L23.8424736,19.609749 L17.8691628,30.8015338 L17.7846859,30.7763947 L17.8691628,30.8015338 C17.5503976,30.7038155 16.7389196,30.5116227 16.3356774,30.4386381 L10.8904516,29.3017 C4.37573934,27.9279674 1.31292987,25.0381823 1.31292987,19.9223664 C1.31292987,13.4798525 6.6607783,9.40609467 14.4397317,9.40609467 C15.5824593,9.40609467 16.8300548,9.49773091 18.1176,9.72844338 L18.1176,9.72519962 L23.1741486,0.377087165 L28.5207486,0.377087165 C35.6675814,0.377087165 40.2380755,3.07995065 40.2380755,8.33808651 C40.2380755,11.3227517 38.1473751,15.0145567 35.2784881,16.0095802 C39.3138228,16.8618783 41.6966553,19.5651473 41.6966553,23.0234015 C41.6966553,28.3760119 36.8976989,31.5257034 29.5078388,31.5257034 L25.1683039,31.5532753 L24.3401801,33.0847358 L19.1779313,42.6911327 L18.9969092,42.7154609 C17.983602,42.8606192 16.0497874,42.9919915 14.9257863,42.9919915 C8.00071996,42.9919915 1.70791336,39.9535878 0.244227607,33.1128517 Z" id="Combined-Shape"></path>
                </g>
            </g>
        </g>
    </g>
</svg>