<?xml version="1.0" encoding="UTF-8"?>
<svg width="114px" height="22px" viewBox="0 0 114 22" version="1.1" xmlns="http://www.w3.org/2000/svg" xmlns:xlink="http://www.w3.org/1999/xlink">
    <!-- Generator: sketchtool 52.1 (67048) - http://www.bohemiancoding.com/sketch -->
    <title>CC0D033A-E7DB-4ACA-9C33-E5755F0859ED</title>
    <desc>Created with sketchtool.</desc>
    <g id="Page-2" stroke="none" stroke-width="1" fill="none" fill-rule="evenodd">
        <g id="Desktop-HD-Copy-115" transform="translate(-40.000000, -32.000000)">
            <g id="Group" transform="translate(40.000000, 32.000000)">
                <path d="M27.9043783,4.10666667 C30.2620708,4.10666667 31.9738202,5.31352381 32.3775347,7.35847619 L29.7614649,7.91161905 C29.5676819,6.85561905 28.7279558,6.336 27.8720811,6.336 C26.9839093,6.336 26.418709,6.83885714 26.418709,7.47580952 C26.418709,7.92838095 26.612492,8.26361905 27.2907323,8.41447619 L29.5353848,8.93409524 C31.40862,9.36990476 32.5067233,10.4259048 32.5067233,12.2026667 C32.5067233,14.599619 30.4558538,15.84 28.0497155,15.84 C25.6112801,15.84 23.6088562,14.6331429 23.3181818,12.4373333 L26.0634403,11.8841905 C26.3379661,13.0407619 27.1130979,13.543619 28.1950527,13.543619 C29.1962646,13.543619 29.793762,13.0742857 29.793762,12.3870476 C29.793762,11.8841905 29.5676819,11.5657143 28.7925501,11.3980952 L26.5317491,10.8952381 C24.9814855,10.5264762 23.6250048,9.68838095 23.6250048,7.64342857 C23.6250048,5.46438095 25.3690514,4.10666667 27.9043783,4.10666667 Z M44.3965764,6.92266667 C46.1244744,6.92266667 47.4971036,8.28038095 47.4971036,10.3253333 L47.4971036,15.5885714 L44.9294795,15.5885714 L44.9294795,10.8952381 C44.9294795,9.93980952 44.3319821,9.33638095 43.5729989,9.33638095 C42.6202327,9.33638095 41.9904381,10.0571429 41.9904381,11.4651429 L41.9904381,15.5885714 L39.4066655,15.5885714 L39.4066655,10.8952381 C39.4066655,9.93980952 38.8091681,9.33638095 38.0340363,9.33638095 C37.0974187,9.33638095 36.4837727,10.0571429 36.4837727,11.4651429 L36.4837727,15.5885714 L33.9,15.5885714 L33.9,7.17409524 L36.4837727,7.17409524 L36.4837727,7.94514286 C37.0328243,7.30819048 37.8241047,6.92266667 38.8737624,6.92266667 C40.0041629,6.92266667 40.9730777,7.42552381 41.5221293,8.34742857 C42.1680725,7.47580952 43.1369873,6.92266667 44.3965764,6.92266667 Z M57.5513529,7.17409524 L57.5513529,15.5885714 L54.9675802,15.5885714 L54.9675802,14.9180952 C54.3377856,15.5047619 53.4980595,15.84 52.4484019,15.84 C50.3006409,15.84 48.492,14.0464762 48.492,11.3813333 C48.492,8.73295238 50.3006409,6.92266667 52.4484019,6.92266667 C53.4980595,6.92266667 54.3377856,7.25790476 54.9675802,7.84457143 L54.9675802,7.17409524 L57.5513529,7.17409524 Z M52.9779781,13.560381 C54.0276357,13.560381 54.9642533,12.6887619 54.9642533,11.3813333 C54.9642533,10.0906667 54.0276357,9.20228571 52.9779781,9.20228571 C51.8475775,9.20228571 51.024,10.0906667 51.024,11.3813333 C51.024,12.6887619 51.8475775,13.560381 52.9779781,13.560381 Z M64.3334768,7.0567619 C64.559557,7.0567619 64.6080027,7.00647619 64.8017856,7.0567619 L64.8017856,9.80571429 L64.3334768,9.80571429 C62.524836,9.80571429 61.5397727,10.7779048 61.5397727,12.9569524 L61.5397727,15.5885714 L58.956,15.5885714 L58.956,7.17409524 L61.5397727,7.17409524 L61.5397727,8.7832381 C62.1211215,7.77752381 63.0092934,7.0567619 64.3334768,7.0567619 Z M70.5205737,13.1078095 L71.1180712,15.2198095 C70.4882766,15.5718095 69.8261848,15.84 68.9057158,15.84 C66.8871434,15.84 65.676,14.7001905 65.676,12.487619 L65.676,9.30285714 L65.676,7.17409524 L65.676,4.69333333 L68.2597727,4.69333333 L68.2597727,7.17409524 L70.6497624,7.17409524 L70.6497624,9.30285714 L68.2597727,9.30285714 L68.2597727,12.2194286 C68.2597727,13.0910476 68.6634871,13.4430476 69.3417275,13.4430476 C69.6969962,13.4430476 70.1814536,13.3089524 70.5205737,13.1078095 Z M81.1093748,9.78895238 L81.1093748,9.856 C82.1105867,9.93980952 83.1925415,10.744381 83.1925415,12.4373333 C83.1925415,14.2979048 81.9813981,15.5885714 79.6237055,15.5885714 L74.004,15.5885714 L74.004,4.35809524 L79.607557,4.35809524 C81.5938322,4.35809524 82.8857185,5.58171429 82.8857185,7.42552381 C82.8857185,8.96761905 81.8360609,9.70514286 81.1093748,9.78895238 Z M76.668,6.58742857 L76.668,9.00114286 L78.9933954,9.00114286 C79.7846758,9.00114286 80.3014303,8.49828571 80.3014303,7.744 C80.3014303,7.04 79.7685272,6.58742857 79.0902869,6.58742857 L76.668,6.58742857 Z M76.668,13.3592381 L79.1548812,13.3592381 C80.0107559,13.3592381 80.4790647,12.8731429 80.4790647,12.1020952 C80.4790647,11.3645714 79.9623101,10.8952381 79.2033269,10.8952381 L76.668,10.8952381 L76.668,13.3592381 Z M93.0953904,7.17409524 L93.0953904,15.5885714 L90.5116178,15.5885714 L90.5116178,14.9180952 C89.8818232,15.5047619 89.0420971,15.84 87.9924394,15.84 C85.8446784,15.84 84.0360375,14.0464762 84.0360375,11.3813333 C84.0360375,8.73295238 85.8446784,6.92266667 87.9924394,6.92266667 C89.0420971,6.92266667 89.8818232,7.25790476 90.5116178,7.84457143 L90.5116178,7.17409524 L93.0953904,7.17409524 Z M88.5253425,13.560381 C89.5750002,13.560381 90.5116178,12.6887619 90.5116178,11.3813333 C90.5116178,10.0906667 89.5750002,9.20228571 88.5253425,9.20228571 C87.394942,9.20228571 86.5713645,10.0906667 86.5713645,11.3813333 C86.5713645,12.6887619 87.394942,13.560381 88.5253425,13.560381 Z M99.5706538,6.92266667 C101.460038,6.92266667 102.719627,8.31390476 102.719627,10.4259048 L102.719627,15.5885714 L100.152003,15.5885714 L100.152003,10.9958095 C100.152003,10.0068571 99.5868024,9.33638095 98.7632249,9.33638095 C97.7458644,9.33638095 97.0837727,10.0571429 97.0837727,11.6830476 L97.0837727,15.5885714 L94.5,15.5885714 L94.5,7.17409524 L97.0837727,7.17409524 L97.0837727,7.97866667 C97.6974187,7.30819048 98.5532934,6.92266667 99.5706538,6.92266667 Z M113.118759,15.5885714 L109.8083,15.5885714 L107.176081,12.5546667 L106.707773,12.5546667 L106.707773,15.5885714 L104.124,15.5885714 L104.124,3.52 L106.707773,3.52 L106.707773,10.040381 L107.063041,10.040381 L109.630665,7.17409524 L112.747341,7.17409524 L109.194654,11.1801905 L113.118759,15.5885714 Z" id="Smart-Bank" fill="#4A4A4A"></path>
                <g id="Group-10" fill="#29A4FE">
                    <path d="M12.9563023,6.72224767 L11.1028825,6.72224767 L8.61831304,11.5282953 L8.61831304,11.5293049 L6.6907802,11.0768071 C5.44056896,10.8173427 4.79237733,10.416334 4.79237733,9.49639644 C4.79237733,8.4585389 5.69520859,7.8451126 7.08433219,7.8451126 C7.73945953,7.8451126 8.18909169,7.96141726 8.5776896,8.21563178 L8.5776896,8.21179534 L11.0353088,3.44310247 L12.9563023,3.44310247 C14.4611532,3.44310247 15.248059,3.98565562 15.248059,5.00009068 C15.248059,6.03815014 14.4377699,6.72224767 12.9563023,6.72224767 Z M0.113639092,16.4766227 L3.94165058,15.7325327 C4.20824638,17.1298235 5.38520994,18.0361063 7.22324455,18.0361063 C7.79514337,18.0361063 8.93002366,17.8885044 8.93002366,17.8885044 L9.18565411,17.3942096 C9.24411224,17.292443 9.40363356,16.968163 9.49459044,16.7969367 C9.49795922,16.7906773 9.58316936,16.624297 9.58693446,16.6182395 L11.5097114,12.9263742 L13.5119517,12.9263742 C15.1325299,12.9263742 15.8500786,12.1950279 15.8500786,11.251466 C15.8500786,10.2606553 15.0397895,9.76535096 13.6044939,9.76535096 L11.3535588,9.76535096 L8.50912516,15.3386863 L8.46889804,15.3261674 L8.50912516,15.3386863 C8.35733219,15.2900241 7.97091407,15.1943151 7.77889399,15.1579699 L5.18592933,14.5917923 C2.0836854,13.9076948 0.625204701,12.4686266 0.625204701,9.92102959 C0.625204701,6.71275753 3.17179919,4.68408932 6.87606273,4.68408932 C7.42021871,4.68408932 8.0143118,4.72972274 8.62742855,4.84461397 L8.62742855,4.84299863 L11.0353088,0.187783562 L13.5813088,0.187783562 C16.9845626,0.187783562 19.1609883,1.53376767 19.1609883,4.15223781 C19.1609883,5.63855479 18.1654167,7.47701644 16.79928,7.97252274 C18.720868,8.39695397 19.8555501,9.74314 19.8555501,11.465297 C19.8555501,14.130814 17.5703328,15.6993115 14.0513518,15.6993115 L11.9849066,15.7130419 L11.590562,16.4756855 L9.13234823,21.2595222 L9.04614726,21.2716373 C8.56362002,21.3439238 7.64275592,21.4093452 7.10751728,21.4093452 C3.80565421,21.4093452 0.805636882,19.8923992 0.113639092,16.4766227 Z" id="Combined-Shape"></path>
                </g>
            </g>
        </g>
    </g>
</svg>